<svg xmlns="http://www.w3.org/2000/svg" xmlns:xlink="http://www.w3.org/1999/xlink" width="500" zoomAndPan="magnify" viewBox="0 0 375 374.999991" height="500" preserveAspectRatio="xMidYMid meet" version="1.0"><defs><clipPath id="56a7c00e99"><path d="M 54.25 112.5 L 208.75 112.5 L 208.75 262.5 L 54.25 262.5 Z M 54.25 112.5 " clip-rule="nonzero"/></clipPath><clipPath id="bbca282841"><path d="M 180.25 112.5 L 325 112.5 L 325 262.5 L 180.25 262.5 Z M 180.25 112.5 " clip-rule="nonzero"/></clipPath></defs><g clip-path="url(#56a7c00e99)"><path fill="#007cba" d="M 114.570312 160.371094 L 119.363281 142.523438 L 200.539062 142.523438 L 208.679688 112.53125 L 94.519531 112.53125 L 81.667969 160.371094 Z M 54.25 262.464844 L 87.238281 262.464844 L 102.867188 204.421875 L 174.402344 204.421875 L 182.332031 174.4375 L 77.894531 174.4375 Z M 54.25 262.464844 " fill-opacity="1" fill-rule="nonzero"/></g><g clip-path="url(#bbca282841)"><path fill="#007cba" d="M 217.144531 161.269531 L 181.144531 257.652344 C 180.265625 260 182.003906 262.503906 184.507812 262.503906 L 215.128906 262.503906 C 216.648438 262.503906 218.007812 261.542969 218.511719 260.105469 L 227.066406 235.90625 L 237.410156 204.90625 C 237.65625 204.175781 237.65625 203.382812 237.417969 202.652344 L 223.921875 161.40625 C 222.863281 158.179688 218.332031 158.085938 217.144531 161.269531 Z M 267.976562 112.496094 L 240.660156 112.496094 C 238.191406 112.496094 236.457031 114.933594 237.265625 117.265625 L 252.609375 161.492188 L 252.628906 161.429688 L 277.796875 235.90625 L 286.527344 260.128906 C 287.039062 261.550781 288.390625 262.503906 289.90625 262.503906 L 321.285156 262.503906 C 323.792969 262.503906 325.527344 260 324.652344 257.65625 L 271.34375 114.832031 C 270.816406 113.429688 269.476562 112.496094 267.976562 112.496094 " fill-opacity="1" fill-rule="nonzero"/></g></svg>